<svg xmlns="http://www.w3.org/2000/svg" xmlns:xlink="http://www.w3.org/1999/xlink" width="500" zoomAndPan="magnify" viewBox="0 0 375 374.999991" height="500" preserveAspectRatio="xMidYMid meet" version="1.0"><defs><g/></defs><rect x="-37.5" width="450" fill="#ffffff" y="-37.499999" height="449.999989" fill-opacity="1"/><rect x="-37.5" width="450" fill="#ffffff" y="-37.499999" height="449.999989" fill-opacity="1"/><rect x="-37.5" width="450" fill="#fafafa" y="-37.499999" height="449.999989" fill-opacity="1"/><g fill="#4f240f" fill-opacity="1"><g transform="translate(137.928562, 246.477539)"><g><path d="M 13.339844 -34.035156 C 12.261719 -33.984375 11.132812 -34.132812 10.054688 -34.132812 L 9.90625 -34.132812 C 9.808594 -34.132812 9.710938 -34.132812 9.613281 -34.082031 C 9.121094 -34.082031 8.582031 -34.035156 8.089844 -34.035156 L 7.355469 -34.035156 C 7.011719 -34.082031 6.667969 -34.132812 6.328125 -34.132812 C 6.128906 -34.132812 5.984375 -34.035156 5.886719 -33.886719 L 5.492188 -33.886719 C 4.804688 -33.9375 4.757812 -32.90625 5.445312 -32.808594 C 5.101562 -32.515625 5.394531 -31.828125 5.984375 -31.925781 C 6.523438 -32.023438 7.109375 -32.074219 7.648438 -32.121094 L 9.269531 -31.972656 C 9.367188 -30.699219 9.515625 -29.425781 9.5625 -28.148438 C 9.660156 -26.335938 9.660156 -24.519531 9.757812 -22.707031 L 9.90625 -20.941406 C 9.90625 -18.488281 9.957031 -16.035156 10.398438 -13.585938 L 10.25 -11.328125 C 10.152344 -8.972656 10.691406 -6.179688 10.054688 -3.824219 C 9.957031 -3.777344 9.855469 -3.726562 9.808594 -3.578125 C 9.808594 -3.53125 9.757812 -3.53125 9.757812 -3.480469 L 9.757812 -3.433594 C 9.613281 -3.136719 9.464844 -2.84375 9.269531 -2.550781 C 9.121094 -2.355469 8.972656 -2.15625 8.777344 -2.011719 C 8.632812 -2.15625 8.386719 -2.257812 8.140625 -2.15625 C 5.003906 -0.785156 5.003906 -5.445312 5.050781 -7.308594 C 5.101562 -9.464844 5.34375 -11.574219 5.246094 -13.683594 C 5.246094 -13.78125 5.199219 -13.828125 5.199219 -13.925781 C 5.738281 -13.976562 6.277344 -14.074219 6.816406 -14.269531 C 6.964844 -14.320312 7.109375 -14.417969 7.160156 -14.566406 C 7.207031 -14.566406 7.207031 -14.613281 7.257812 -14.613281 C 7.699219 -14.808594 7.550781 -15.546875 7.109375 -15.59375 C 6.128906 -15.792969 5.148438 -15.792969 4.21875 -15.691406 L 1.667969 -15.839844 C 1.273438 -15.839844 1.078125 -15.449219 1.175781 -15.152344 C 0.539062 -15.054688 0.636719 -14.125 1.273438 -14.027344 C 1.816406 -13.976562 2.304688 -13.878906 2.84375 -13.878906 C 2.796875 -13.242188 2.796875 -12.554688 2.796875 -11.917969 C 2.746094 -11.28125 2.746094 -10.640625 2.746094 -10.003906 C 2.746094 -9.121094 2.746094 -8.140625 3.039062 -7.207031 C 2.992188 -5.785156 3.089844 -4.363281 3.433594 -2.941406 C 3.480469 -2.796875 3.53125 -2.648438 3.628906 -2.597656 C 3.972656 -1.816406 4.414062 -1.128906 5.148438 -0.636719 C 5.246094 -0.589844 5.34375 -0.539062 5.445312 -0.539062 C 6.867188 0.492188 8.828125 0.441406 10.347656 -1.03125 C 10.59375 -1.273438 10.542969 -1.570312 10.398438 -1.765625 C 10.839844 -2.550781 11.132812 -3.433594 11.28125 -4.316406 C 11.476562 -4.363281 11.621094 -4.460938 11.671875 -4.707031 C 11.964844 -6.667969 12.0625 -8.632812 12.0625 -10.59375 C 12.113281 -10.691406 12.160156 -10.789062 12.160156 -10.9375 C 12.210938 -13.09375 12.015625 -15.25 11.867188 -17.410156 C 11.867188 -17.605469 11.917969 -17.753906 11.917969 -17.949219 C 12.0625 -19.519531 12.015625 -21.039062 11.867188 -22.609375 C 11.867188 -23.6875 11.917969 -24.765625 11.964844 -25.894531 C 12.113281 -27.855469 12.113281 -29.769531 11.820312 -31.777344 L 11.820312 -31.875 L 11.769531 -31.875 L 11.769531 -32.074219 C 11.867188 -32.074219 12.015625 -32.074219 12.160156 -32.121094 C 12.40625 -32.074219 12.703125 -32.074219 12.996094 -32.074219 L 13.144531 -32.074219 C 13.386719 -32.074219 13.535156 -32.21875 13.632812 -32.414062 C 13.683594 -32.464844 13.730469 -32.613281 13.730469 -32.710938 C 14.074219 -32.808594 14.074219 -33.199219 13.878906 -33.496094 C 13.878906 -33.789062 13.730469 -34.082031 13.339844 -34.035156 Z M 13.339844 -34.035156 "/></g></g></g><g fill="#4f240f" fill-opacity="1"><g transform="translate(153.180208, 246.477539)"><g><path d="M 15.792969 -34.035156 C 15.742188 -34.179688 15.59375 -34.28125 15.351562 -34.28125 C 13.683594 -34.132812 12.0625 -34.179688 10.398438 -34.132812 C 10.101562 -34.132812 9.957031 -33.886719 9.90625 -33.691406 C 9.367188 -33.496094 9.464844 -32.613281 10.101562 -32.613281 L 10.25 -32.613281 C 10.984375 -32.5625 11.71875 -32.5625 12.40625 -32.5625 C 12.015625 -28.886719 12.308594 -25.257812 12.308594 -21.578125 C 12.308594 -21.382812 12.40625 -21.285156 12.503906 -21.183594 L 12.359375 -15.546875 C 12.308594 -12.945312 12.457031 -10.296875 12.308594 -7.699219 C 12.210938 -5.246094 11.523438 -1.421875 8.679688 -0.589844 C 8.289062 -0.492188 7.945312 -0.539062 7.648438 -0.785156 C 7.550781 -0.882812 7.40625 -0.980469 7.308594 -1.128906 C 6.328125 -2.304688 5.984375 -5.101562 5.886719 -5.984375 C 5.640625 -8.140625 5.589844 -10.296875 5.589844 -12.457031 C 5.542969 -18.832031 5.785156 -25.257812 5.640625 -31.679688 L 5.640625 -32.316406 C 6.179688 -32.414062 6.769531 -32.464844 7.355469 -32.5625 C 7.648438 -32.613281 7.75 -32.855469 7.75 -33.101562 C 8.089844 -33.347656 7.847656 -34.035156 7.355469 -34.082031 C 5.542969 -34.179688 3.726562 -33.789062 1.914062 -34.035156 C 1.324219 -34.132812 1.03125 -33.445312 1.324219 -33.152344 C 1.226562 -32.855469 1.273438 -32.5625 1.519531 -32.464844 L 1.765625 -32.316406 C 1.863281 -32.316406 1.914062 -32.269531 1.960938 -32.269531 C 2.15625 -32.171875 2.304688 -32.21875 2.453125 -32.316406 C 2.84375 -32.269531 3.238281 -32.21875 3.578125 -32.21875 C 3.480469 -31.972656 3.382812 -31.730469 3.382812 -31.484375 C 3.433594 -30.945312 3.480469 -30.355469 3.480469 -29.816406 L 3.480469 -29.570312 C 3.382812 -28.050781 3.382812 -26.53125 3.382812 -25.011719 C 3.238281 -22.214844 3.335938 -19.421875 3.433594 -16.671875 C 3.53125 -14.269531 3.726562 -11.867188 3.875 -9.464844 C 3.921875 -8.679688 3.921875 -7.894531 4.019531 -7.0625 C 4.070312 -6.867188 4.019531 -6.570312 4.121094 -6.375 C 4.265625 -5.445312 4.460938 -4.511719 4.757812 -3.628906 C 5.199219 -1.863281 6.179688 0.0507812 7.847656 0.492188 C 8.972656 0.933594 10.152344 0.492188 11.179688 -0.390625 C 11.425781 -0.589844 11.71875 -0.832031 11.917969 -1.078125 C 12.40625 -1.421875 12.945312 -1.765625 13.191406 -2.257812 C 13.683594 -3.039062 13.632812 -4.363281 13.78125 -5.296875 C 14.417969 -10.738281 14.515625 -16.28125 14.515625 -21.726562 C 14.515625 -24.570312 14.171875 -27.414062 14.074219 -30.257812 L 14.074219 -32.613281 L 15.351562 -32.613281 C 15.644531 -32.613281 15.792969 -32.757812 15.839844 -33.003906 C 16.332031 -33.152344 16.378906 -33.9375 15.792969 -34.035156 Z M 15.792969 -34.035156 "/></g></g></g><g fill="#4f240f" fill-opacity="1"><g transform="translate(170.638682, 246.477539)"><g><path d="M 8.042969 -16.820312 C 6.375 -19.960938 4.265625 -22.949219 3.53125 -26.433594 L 3.285156 -28.589844 C 3.433594 -29.914062 3.972656 -31.335938 4.757812 -32.121094 C 6.375 -33.640625 8.042969 -32.316406 8.730469 -30.648438 C 8.777344 -30.503906 8.828125 -30.453125 8.925781 -30.355469 C 8.972656 -30.207031 9.074219 -30.109375 9.171875 -30.011719 C 9.171875 -29.769531 9.21875 -29.472656 9.269531 -29.179688 C 9.269531 -28.785156 9.316406 -28.34375 9.367188 -27.953125 C 9.414062 -27.660156 9.660156 -27.511719 9.90625 -27.5625 C 10.152344 -27.070312 11.035156 -27.363281 10.9375 -28.003906 C 10.789062 -29.082031 10.886719 -30.0625 10.984375 -31.140625 C 11.035156 -31.484375 10.984375 -31.777344 10.9375 -32.121094 C 10.984375 -32.710938 10.9375 -33.296875 10.789062 -33.886719 C 10.691406 -34.28125 10.347656 -34.378906 10.054688 -34.28125 C 9.808594 -34.378906 9.515625 -34.28125 9.414062 -33.9375 C 9.269531 -33.839844 9.171875 -33.640625 9.21875 -33.445312 C 9.269531 -33.199219 9.269531 -32.957031 9.316406 -32.710938 C 8.828125 -33.59375 8.140625 -34.328125 7.109375 -34.425781 C 5.101562 -34.621094 3.578125 -34.082031 2.402344 -32.414062 C 1.175781 -30.699219 1.375 -27.855469 1.765625 -25.941406 C 2.011719 -24.519531 2.597656 -23.097656 3.335938 -21.824219 C 3.628906 -20.84375 3.777344 -19.863281 4.167969 -18.878906 C 4.660156 -17.800781 5.34375 -16.820312 5.886719 -15.742188 C 6.914062 -13.535156 8.042969 -11.328125 8.730469 -9.023438 C 9.367188 -6.964844 10.152344 -3.136719 8.238281 -1.519531 C 8.140625 -1.519531 8.089844 -1.472656 7.992188 -1.472656 C 6.128906 -1.03125 4.609375 -2.894531 3.679688 -4.363281 C 3.480469 -4.953125 3.382812 -5.589844 3.382812 -6.082031 C 3.382812 -6.375 3.1875 -6.523438 2.992188 -6.570312 L 2.941406 -6.769531 C 2.796875 -7.308594 2.011719 -7.308594 1.863281 -6.769531 C 1.570312 -5.640625 1.714844 -4.460938 1.714844 -3.335938 C 1.714844 -2.402344 1.667969 -1.617188 1.765625 -0.734375 L 1.765625 -0.539062 L 1.816406 -0.539062 L 1.816406 -0.390625 C 1.863281 0.148438 2.597656 0.0976562 2.84375 -0.292969 C 3.1875 -0.0976562 3.777344 -0.390625 3.679688 -0.933594 C 3.578125 -1.375 3.480469 -1.816406 3.433594 -2.257812 C 4.070312 -1.273438 5.003906 -0.441406 6.082031 0 C 7.257812 0.492188 8.972656 0.0976562 9.90625 -0.785156 C 10.398438 -1.273438 10.738281 -1.816406 10.9375 -2.453125 C 11.476562 -3.335938 11.769531 -4.460938 11.820312 -5.492188 C 11.964844 -6.867188 11.476562 -8.335938 10.9375 -9.710938 C 10.296875 -12.210938 9.21875 -14.613281 8.042969 -16.820312 Z M 8.042969 -16.820312 "/></g></g></g><g fill="#4f240f" fill-opacity="1"><g transform="translate(183.732515, 246.477539)"><g><path d="M 13.828125 -33.445312 C 13.78125 -33.9375 13.242188 -34.035156 12.945312 -33.789062 C 12.898438 -33.839844 12.800781 -33.886719 12.703125 -33.886719 C 11.179688 -34.179688 9.464844 -33.984375 7.894531 -34.035156 C 6.375 -34.035156 4.757812 -34.230469 3.238281 -34.035156 L 2.207031 -34.035156 C 2.011719 -34.378906 1.472656 -34.378906 1.273438 -33.984375 C 1.175781 -33.9375 1.128906 -33.839844 1.078125 -33.738281 C 0.785156 -33.789062 0.492188 -33.59375 0.492188 -33.25 C 0.492188 -31.484375 0.589844 -29.570312 0.882812 -27.804688 C 0.980469 -27.316406 1.667969 -27.316406 1.914062 -27.707031 C 2.058594 -27.757812 2.207031 -27.855469 2.304688 -28.050781 C 2.796875 -29.570312 2.550781 -31.089844 2.402344 -32.5625 L 2.746094 -32.5625 C 3.875 -32.316406 5.050781 -32.171875 6.226562 -32.121094 C 6.328125 -30.0625 6.621094 -28.003906 6.769531 -25.941406 C 6.769531 -25.648438 6.816406 -25.355469 6.816406 -25.058594 C 6.328125 -17.359375 4.902344 -9.613281 6.769531 -2.011719 C 5.835938 -2.058594 4.855469 -1.960938 3.824219 -1.765625 C 3.382812 -1.667969 3.285156 -1.03125 3.726562 -0.734375 C 3.679688 -0.492188 3.875 -0.195312 4.21875 -0.195312 L 4.804688 -0.195312 C 5.492188 0.0507812 6.226562 0.195312 7.011719 0.0976562 C 7.257812 0.0976562 7.503906 0.0507812 7.75 0 C 8.777344 0.148438 9.808594 -0.0976562 10.839844 -0.195312 C 11.328125 -0.246094 11.523438 -0.882812 11.230469 -1.128906 C 11.230469 -1.375 11.132812 -1.570312 10.9375 -1.617188 C 10.886719 -1.816406 10.738281 -1.914062 10.496094 -1.914062 C 9.660156 -1.914062 8.828125 -1.960938 8.042969 -2.011719 C 8.089844 -6.03125 8.140625 -10.101562 8.140625 -14.171875 C 8.191406 -14.910156 8.191406 -15.691406 8.191406 -16.429688 C 8.238281 -18.539062 8.140625 -20.644531 8.042969 -22.804688 C 7.992188 -23.492188 7.992188 -24.175781 7.945312 -24.914062 L 7.945312 -25.109375 C 8.042969 -26.972656 8.140625 -28.835938 8.089844 -30.699219 C 8.191406 -30.796875 8.289062 -30.945312 8.289062 -31.140625 L 8.289062 -31.335938 C 8.238281 -31.632812 8.191406 -31.875 8.191406 -32.121094 C 9.464844 -32.171875 10.738281 -32.269531 12.015625 -32.316406 C 12.0625 -30.945312 12.261719 -29.425781 12.359375 -28.101562 C 12.457031 -27.5625 13.242188 -27.316406 13.4375 -27.855469 C 13.535156 -27.953125 13.585938 -28.050781 13.585938 -28.199219 C 13.632812 -29.667969 13.78125 -31.289062 13.828125 -32.710938 C 13.976562 -32.90625 13.976562 -33.25 13.828125 -33.445312 Z M 13.828125 -33.445312 "/></g></g></g><g fill="#4f240f" fill-opacity="1"><g transform="translate(198.150462, 246.477539)"><g/></g></g><g fill="#4f240f" fill-opacity="1"><g transform="translate(206.977773, 246.477539)"><g><path d="M 12.898438 -17.949219 C 12.652344 -17.949219 12.457031 -17.949219 12.210938 -17.898438 C 12.160156 -17.949219 12.113281 -17.949219 12.015625 -17.949219 C 10.445312 -18.046875 8.925781 -17.800781 7.355469 -17.703125 C 6.769531 -17.65625 6.621094 -16.773438 7.207031 -16.625 C 7.257812 -16.625 7.308594 -16.625 7.355469 -16.574219 L 7.40625 -16.574219 C 7.699219 -16.527344 7.945312 -16.476562 8.238281 -16.476562 C 8.191406 -16.429688 8.191406 -16.429688 8.140625 -16.429688 C 7.648438 -16.230469 7.847656 -15.546875 8.289062 -15.398438 C 8.582031 -15.351562 8.875 -15.398438 9.21875 -15.496094 C 9.515625 -15.449219 9.808594 -15.398438 10.101562 -15.398438 C 10.054688 -13.683594 10.054688 -11.917969 10.101562 -10.152344 C 10.101562 -8.238281 10.054688 -6.328125 10.445312 -4.460938 L 10.445312 -4.414062 C 10.445312 -4.363281 10.496094 -4.316406 10.496094 -4.316406 C 10.445312 -3.921875 10.347656 -3.578125 10.25 -3.1875 C 10.152344 -2.992188 10.101562 -2.84375 10.003906 -2.695312 C 9.515625 -1.765625 8.484375 -1.765625 7.550781 -1.960938 C 7.308594 -2.011719 7.0625 -2.109375 6.816406 -2.207031 C 6.425781 -2.597656 6.128906 -3.039062 5.835938 -3.53125 C 5.738281 -3.875 5.6875 -4.167969 5.589844 -4.460938 C 5.148438 -5.984375 4.953125 -7.503906 4.855469 -9.074219 C 4.460938 -14.074219 4.316406 -19.078125 4.460938 -24.078125 C 4.5625 -24.863281 4.707031 -25.648438 4.804688 -26.382812 C 5.101562 -28.246094 5.445312 -30.308594 6.425781 -32.023438 C 7.699219 -34.179688 9.269531 -32.316406 10.199219 -30.894531 C 10.25 -30.011719 10.445312 -29.128906 10.789062 -28.246094 L 10.789062 -27.902344 C 10.789062 -27.21875 11.917969 -27.21875 11.917969 -27.902344 C 12.160156 -27.902344 12.359375 -28.101562 12.359375 -28.394531 L 12.359375 -31.730469 C 12.359375 -31.925781 12.261719 -32.074219 12.113281 -32.171875 C 12.0625 -32.660156 12.015625 -33.152344 11.917969 -33.59375 L 11.917969 -33.738281 C 11.867188 -33.789062 11.867188 -33.839844 11.867188 -33.886719 C 11.820312 -34.179688 11.574219 -34.328125 11.328125 -34.28125 L 11.328125 -34.328125 C 11.28125 -34.378906 11.28125 -34.425781 11.28125 -34.476562 C 11.179688 -35.113281 10.25 -34.917969 10.199219 -34.328125 L 10.199219 -32.757812 L 9.757812 -33.199219 C 9.757812 -33.296875 9.710938 -33.347656 9.660156 -33.398438 C 9.660156 -33.542969 9.613281 -33.738281 9.414062 -33.886719 C 8.972656 -34.179688 8.53125 -34.328125 8.089844 -34.328125 C 7.308594 -34.574219 6.523438 -34.574219 5.835938 -33.984375 C 5.148438 -33.398438 4.660156 -32.613281 4.316406 -31.730469 C 3.972656 -31.238281 3.726562 -30.75 3.53125 -30.308594 C 2.746094 -28.394531 2.597656 -25.894531 2.355469 -23.785156 C 2.058594 -21.039062 1.960938 -18.242188 2.058594 -15.449219 C 2.109375 -12.996094 2.257812 -10.496094 2.796875 -8.042969 C 3.238281 -5.984375 3.777344 -3.628906 5.199219 -2.058594 C 5.6875 -1.078125 6.328125 -0.492188 7.40625 -0.0976562 C 7.945312 0.0976562 8.484375 0 9.023438 -0.195312 C 9.90625 -0.195312 10.738281 -0.539062 11.230469 -1.375 C 12.160156 -2.894531 12.113281 -5.148438 12.113281 -6.867188 L 12.113281 -8.925781 C 12.113281 -9.316406 12.160156 -9.757812 12.160156 -10.152344 C 12.261719 -12.015625 12.359375 -13.925781 12.015625 -15.742188 L 12.652344 -15.890625 C 13.09375 -15.988281 13.191406 -16.527344 12.898438 -16.820312 C 13.585938 -16.871094 13.585938 -17.949219 12.898438 -17.949219 Z M 12.898438 -17.949219 "/></g></g></g><g fill="#4f240f" fill-opacity="1"><g transform="translate(221.591869, 246.477539)"><g><path d="M 12.210938 -31.433594 C 12.015625 -31.777344 11.621094 -31.777344 11.378906 -31.582031 C 11.082031 -32.367188 10.640625 -33.054688 10.003906 -33.542969 C 9.957031 -33.738281 9.808594 -33.9375 9.5625 -33.984375 C 9.464844 -34.035156 9.316406 -34.035156 9.21875 -34.082031 C 9.121094 -34.082031 9.074219 -34.132812 8.972656 -34.179688 C 8.335938 -34.476562 7.648438 -34.476562 7.011719 -34.378906 C 5.835938 -34.378906 4.707031 -34.035156 3.875 -32.90625 C 3.039062 -31.777344 2.84375 -30.011719 2.597656 -28.640625 C 2.257812 -26.875 2.15625 -25.058594 2.109375 -23.246094 C 1.960938 -19.617188 1.960938 -15.9375 2.011719 -12.308594 C 2.011719 -9.121094 2.355469 -5.933594 3.382812 -2.941406 C 3.972656 -1.226562 5.296875 -0.34375 6.667969 -0.148438 C 7.601562 0.492188 8.777344 0.441406 10.25 -0.734375 C 12.015625 -2.15625 12.601562 -4.070312 12.898438 -6.277344 C 13.242188 -9.367188 13.09375 -12.457031 12.898438 -15.546875 C 12.996094 -16.722656 13.09375 -17.851562 13.144531 -18.980469 C 13.386719 -23 14.074219 -27.707031 12.210938 -31.433594 Z M 11.574219 -12.457031 C 11.523438 -11.523438 11.523438 -10.542969 11.523438 -9.613281 L 11.523438 -7.453125 C 11.378906 -5.785156 11.035156 -3.875 10.152344 -2.648438 C 9.464844 -1.914062 8.386719 -1.617188 7.40625 -1.617188 C 7.109375 -1.617188 6.867188 -1.667969 6.621094 -1.765625 C 5.445312 -3.382812 4.902344 -6.769531 4.707031 -7.847656 C 4.070312 -11.769531 3.972656 -15.9375 3.921875 -19.910156 L 3.921875 -22.019531 C 4.167969 -24.570312 4.5625 -27.070312 5.101562 -29.570312 C 5.34375 -30.75 5.886719 -32.074219 6.964844 -32.757812 C 8.582031 -33.738281 9.613281 -30.503906 9.957031 -29.523438 C 10.691406 -27.460938 11.035156 -25.257812 11.230469 -23.050781 C 11.230469 -22.066406 11.179688 -21.136719 11.179688 -20.15625 C 11.132812 -17.554688 11.425781 -15.054688 11.574219 -12.457031 Z M 11.574219 -12.457031 "/></g></g></g><path fill="#f14624" d="M 193.617188 169.347656 C 167.050781 180.035156 141.914062 179.777344 137.476562 168.773438 C 136.199219 165.605469 136.777344 161.890625 138.882812 157.953125 C 131.410156 166.5 128.257812 174.746094 131.242188 180.582031 C 137.070312 191.988281 164.117188 189.855469 191.652344 175.816406 C 206.816406 168.082031 218.964844 158.347656 225.84375 149.257812 C 218.617188 156.554688 207.253906 163.859375 193.617188 169.347656 " fill-opacity="1" fill-rule="nonzero"/><path fill="#000000" d="M 244.121094 120.210938 C 241.589844 117 233.644531 126.421875 230.164062 128.507812 L 214.453125 132.988281 L 211.597656 136.332031 L 217.382812 136.730469 C 217.195312 136.992188 217.0625 137.296875 217.007812 137.621094 C 217.59375 137.816406 218.238281 137.746094 218.769531 137.429688 L 219.667969 136.890625 L 221.222656 136.996094 C 221.0625 137.238281 220.949219 137.511719 220.902344 137.804688 C 221.488281 138 222.132812 137.929688 222.664062 137.613281 L 223.4375 137.148438 L 225.023438 137.257812 L 217.261719 149.996094 L 209.863281 150.601562 L 208.207031 152.539062 L 215.816406 154.972656 C 215.816406 154.972656 228.113281 147.15625 231.335938 143.472656 C 234.007812 140.417969 246.761719 123.566406 244.121094 120.210938 " fill-opacity="1" fill-rule="nonzero"/><path fill="#f68712" d="M 213.402344 131.351562 L 223.128906 128.578125 C 214.964844 119.820312 189.851562 122.601562 164.320312 135.621094 C 149.152344 143.351562 137.003906 153.085938 130.125 162.175781 C 137.355469 154.878906 148.71875 147.570312 162.355469 142.085938 C 181.085938 134.550781 199.105469 132.457031 209.660156 135.734375 L 213.402344 131.351562 " fill-opacity="1" fill-rule="nonzero"/><path fill="#000000" d="M 232.058594 144.105469 C 231.953125 144.226562 231.839844 144.351562 231.71875 144.476562 L 232.789062 147.289062 L 232.695312 147.378906 C 232.242188 147.796875 231.992188 148.394531 232.015625 149.011719 C 232.476562 149.066406 232.945312 148.964844 233.339844 148.730469 L 233.625 149.476562 C 233.277344 149.878906 233.089844 150.402344 233.109375 150.9375 C 233.460938 150.980469 233.808594 150.929688 234.128906 150.804688 L 236.121094 156.035156 L 238.5 152.332031 L 238.226562 136.019531 L 238.21875 136.027344 C 235.707031 139.601562 233.191406 142.8125 232.058594 144.105469 " fill-opacity="1" fill-rule="nonzero"/></svg>